- 
http://www.Speed.Cd 
       
http://www.Speed.Cd       the fast  and The Hottest Private Tracker on the net

Please Seed back to make the speed Faster!!!

and don't forget to visit      ...... http://www. Speed.Cd..........
-[img]http://img196.imageshack.us/img196/8720/eaglebd.jpg[/img]

[color=blue][size=5][b]The.Eagle.2011.RC.BDRip.XVID.AC3.HQ.Hive-CM8[/b][/size][/color]


[b]Thx Hive

CM8 Doing It Right The First Time :D


Source Russian Bluray

Encode:
Got this Russian Bluray very early, like all this russian blurays they are a bit unsharp and colourless, 
which i fixed best i could.
Added brightness,sharpness,rgb,and removed some interlace.
The Bluray had English DTS Audio on it, but no useful subs for the foreign parts.
So i harcoded my manually adjusted subs from the one i got from the r5 and from imagines version too. still thx imagine

Video: 720x304 @bitrate 1800 2pass
Audio: English DTS to AC3 5.1 @448
Sample: yes included
Subs: yes english hardcoded for the foreign parts only[/b]


[url]http://www.imdb.com/title/tt1034389/[/url]


General
Complete name                    : The.Eagle.2011.RC.BDRip.XVID.AC3.HQ.Hive-CM8.avi
Format                           : AVI
Format/Info                      : Audio Video Interleave
File size                        : 1.81 GiB
Duration                         : 1h 54mn
Overall bit rate                 : 2 276 Kbps
Writing application              : Nandub v1.0rc2
Writing library                  : Nandub build 1853/release

Video
ID                               : 0
Format                           : MPEG-4 Visual
Format profile                   : Advanced Simple@L5
Format settings, BVOP            : Yes
Format settings, QPel            : Yes
Format settings, GMC             : No warppoints
Format settings, Matrix          : Default (H.263)
Muxing mode                      : Packed bitstream
Codec ID                         : XVID
Codec ID/Hint                    : XviD
Duration                         : 1h 54mn
Bit rate                         : 1 823 Kbps
Width                            : 720 pixels
Height                           : 304 pixels
Display aspect ratio             : 2.35:1
Frame rate                       : 23.976 fps
Color space                      : YUV
Chroma subsampling               : 4:2:0
Bit depth                        : 8 bits
Scan type                        : Progressive
Bits/(Pixel*Frame)               : 0.347
Stream size                      : 1.45 GiB (80%)
Writing library                  : XviD 1.2.1 (UTC 2008-12-04)

Audio
ID                               : 1
Format                           : AC-3
Format/Info                      : Audio Coding 3
Mode extension                   : CM (complete main)
Codec ID                         : 2000
Duration                         : 1h 53mn
Bit rate mode                    : Constant
Bit rate                         : 448 Kbps
Channel(s)                       : 6 channels
Channel positions                : Front: L C R, Side: L R, LFE
Sampling rate                    : 48.0 KHz
Bit depth                        : 16 bits
Video delay                      : 50ms
Stream size                      : 362 MiB (19%)
Alignment                        : Split accross interleaves
Interleave, duration             : 42 ms (1.01 video frame)
Interleave, preload duration     : 500 ms



Channing Tatum	 ... 	Marcus Aquila
Istvan Goz	... 	Cohort Centurion
Bence Gero	... 	Celt Boy / Young Marcus
Denis O'Hare	... 	Lutorius
Paul Ritter	... 	Galba


In Roman-ruled Britain, a young Roman soldier endeavors to honor 
his father's memory by finding his lost legion's golden emblem. 



[img]http://img192.imageshack.us/img192/4663/50807714.png[/img]
[img]http://img812.imageshack.us/img812/7071/eaea.png[/img]
[img]http://img233.imageshack.us/img233/8278/eaeaeav.png[/img]
[img]http://img846.imageshack.us/img846/8929/eaeaeaea.png[/img]
[img]http://img7.imageshack.us/img7/6312/eaeaeaeaea.png[/img]
[img]http://img685.imageshack.us/img685/9882/eaeaeaeaeaea.png[/img]
[img]http://img830.imageshack.us/img830/9126/eaeaeaeaeaeaea.png[/img]
[img]http://img832.imageshack.us/img832/2194/eaeaeeaaeaeaeaea.png[/img]
[img]http://img535.imageshack.us/img535/2788/eaeaeeaeaaeaeaeaea.png[/img]





Greetz

ViSiON,LUSi,SANTi,MAGNET,THC,T0XiCiNK,LKRG,IMAGiNE,WBZ,FLAWL3SS,NOVA
Vik,Rapeseed,D2U,SAFC,goldadvance,MEMORY100,KaN1vE,Unevano,Pinnz,Wayne,Mr Hive
and all P2P groups 
Great Work Guys :D

CM8@hushmail.com